<svg width="25" height="25" viewBox="0 0 25 25" fill="none" xmlns="http://www.w3.org/2000/svg">
<path d="M8.10059 19.7068C8.10059 19.8045 7.98828 19.8826 7.84668 19.8826C7.68555 19.8973 7.57324 19.8192 7.57324 19.7068C7.57324 19.6092 7.68555 19.5311 7.82715 19.5311C7.97363 19.5164 8.10059 19.5945 8.10059 19.7068ZM6.58203 19.4871C6.54785 19.5848 6.64551 19.6971 6.79199 19.7264C6.91895 19.7752 7.06543 19.7264 7.09473 19.6287C7.12402 19.5311 7.03125 19.4188 6.88477 19.3748C6.75781 19.3406 6.61621 19.3895 6.58203 19.4871ZM8.74023 19.4041C8.59863 19.4383 8.50098 19.5311 8.51562 19.6434C8.53027 19.741 8.65723 19.8045 8.80371 19.7703C8.94531 19.7361 9.04297 19.6434 9.02832 19.5457C9.01367 19.4529 8.88184 19.3895 8.74023 19.4041ZM11.9531 0.693176C5.18066 0.693176 0 5.83478 0 12.6072C0 18.0223 3.4082 22.6561 8.27637 24.2869C8.90137 24.3992 9.12109 24.0135 9.12109 23.6961C9.12109 23.3934 9.10645 21.7234 9.10645 20.6981C9.10645 20.6981 5.68848 21.4305 4.9707 19.243C4.9707 19.243 4.41406 17.8221 3.61328 17.4559C3.61328 17.4559 2.49512 16.6893 3.69141 16.7039C3.69141 16.7039 4.90723 16.8016 5.57617 17.9637C6.64551 19.8484 8.4375 19.3065 9.13574 18.9842C9.24805 18.2029 9.56543 17.6609 9.91699 17.3387C7.1875 17.0359 4.43359 16.6404 4.43359 11.9432C4.43359 10.6004 4.80469 9.92657 5.58594 9.0672C5.45898 8.74982 5.04395 7.44122 5.71289 5.75177C6.7334 5.43439 9.08203 7.07013 9.08203 7.07013C10.0586 6.79669 11.1084 6.65509 12.1484 6.65509C13.1885 6.65509 14.2383 6.79669 15.2148 7.07013C15.2148 7.07013 17.5635 5.4295 18.584 5.75177C19.2529 7.44611 18.8379 8.74982 18.7109 9.0672C19.4922 9.93146 19.9707 10.6053 19.9707 11.9432C19.9707 16.6551 17.0947 17.0311 14.3652 17.3387C14.8145 17.7244 15.1953 18.4568 15.1953 19.6043C15.1953 21.2498 15.1807 23.2859 15.1807 23.6863C15.1807 24.0037 15.4053 24.3895 16.0254 24.2772C20.9082 22.6561 24.2188 18.0223 24.2188 12.6072C24.2188 5.83478 18.7256 0.693176 11.9531 0.693176ZM4.74609 17.534C4.68262 17.5828 4.69727 17.6951 4.78027 17.7879C4.8584 17.866 4.9707 17.9002 5.03418 17.8367C5.09766 17.7879 5.08301 17.6756 5 17.5828C4.92188 17.5047 4.80957 17.4705 4.74609 17.534ZM4.21875 17.1385C4.18457 17.202 4.2334 17.2801 4.33105 17.3289C4.40918 17.3777 4.50684 17.3631 4.54102 17.2947C4.5752 17.2313 4.52637 17.1531 4.42871 17.1043C4.33105 17.075 4.25293 17.0897 4.21875 17.1385ZM5.80078 18.8768C5.72266 18.9402 5.75195 19.0867 5.86426 19.1795C5.97656 19.2918 6.11816 19.3065 6.18164 19.2283C6.24512 19.1649 6.21582 19.0184 6.11816 18.9256C6.01074 18.8133 5.86426 18.7986 5.80078 18.8768ZM5.24414 18.159C5.16602 18.2078 5.16602 18.3348 5.24414 18.4471C5.32227 18.5594 5.4541 18.6082 5.51758 18.5594C5.5957 18.4959 5.5957 18.369 5.51758 18.2567C5.44922 18.1443 5.32227 18.0955 5.24414 18.159Z" fill="#F1F1F1"/>
</svg>
