<svg width="16" height="15" viewBox="0 0 16 15" fill="none" xmlns="http://www.w3.org/2000/svg">
<path d="M8.01376 1.21938e-05C10.0179 0.00361098 11.8375 0.793348 13.1809 2.07718L14.261 0.997088C14.7182 0.539861 15.5 0.863691 15.5 1.51032V5.56452C15.5 5.96538 15.175 6.29033 14.7742 6.29033H10.72C10.0734 6.29033 9.74953 5.50855 10.2068 5.05129L11.4694 3.78869C10.536 2.91473 9.32819 2.43061 8.04506 2.41955C5.25077 2.39541 2.89537 4.65675 2.91954 7.5438C2.94246 10.2825 5.16282 12.5806 8 12.5806C9.24376 12.5806 10.4193 12.1368 11.3456 11.3239C11.4891 11.1981 11.7057 11.2057 11.8406 11.3406L13.0401 12.5401C13.1874 12.6874 13.1801 12.9276 13.0255 13.0673C11.6956 14.2685 9.93325 15 8 15C3.85788 15 0.50003 11.6421 0.5 7.50007C0.49997 3.3627 3.87639 -0.00739707 8.01376 1.21938e-05Z" fill="#F1F1F1"/>
</svg>
