<svg width="27" height="27" viewBox="0 0 27 27" fill="none" xmlns="http://www.w3.org/2000/svg">
<path d="M13.5006 8.625C10.8142 8.625 8.62539 10.8137 8.62539 13.5C8.62539 16.1863 10.8142 18.375 13.5006 18.375C16.1871 18.375 18.3759 16.1863 18.3759 13.5C18.3759 10.8137 16.1871 8.625 13.5006 8.625ZM26.0137 12.7129L21.2045 10.3109L22.9058 5.2125C23.1343 4.52187 22.4792 3.8668 21.7936 4.10039L16.6949 5.80156L14.2878 0.9875C13.9628 0.3375 13.0385 0.3375 12.7135 0.9875L10.3114 5.79648L5.20765 4.09531C4.51699 3.8668 3.86188 4.52187 4.09549 5.20742L5.79674 10.3059L0.987524 12.7129C0.337492 13.0379 0.337492 13.9621 0.987524 14.2871L5.79674 16.6891L4.09549 21.7926C3.86696 22.4832 4.52207 23.1383 5.20765 22.9047L10.3063 21.2035L12.7084 26.0125C13.0334 26.6625 13.9577 26.6625 14.2827 26.0125L16.6848 21.2035L21.7835 22.9047C22.4741 23.1332 23.1292 22.4781 22.8956 21.7926L21.1944 16.6941L26.0036 14.2922C26.6638 13.9621 26.6638 13.0379 26.0137 12.7129ZM18.0966 18.0957C15.5624 20.6297 11.4388 20.6297 8.9047 18.0957C6.3706 15.5617 6.3706 11.4383 8.9047 8.9043C11.4388 6.37031 15.5624 6.37031 18.0966 8.9043C20.6307 11.4383 20.6307 15.5617 18.0966 18.0957Z" fill="black"/>
</svg>
